<!DOCTYPE svg PUBLIC "-//W3C//DTD SVG 20010904//EN" "http://www.w3.org/TR/2001/REC-SVG-20010904/DTD/svg10.dtd">
<svg version="1.0" xmlns="http://www.w3.org/2000/svg" width="225px" height="225px" viewBox="0 0 2250 2250" preserveAspectRatio="xMidYMid meet">
<g id="layer101" fill="#030104" stroke="none">
 <path d="M0 1125 l0 -1125 1125 0 1125 0 0 1125 0 1125 -1125 0 -1125 0 0 -1125z"/>
 </g>
<g id="layer102" fill="#ffffff" stroke="none">
 <path d="M0 2023 l1 -228 384 -325 c211 -179 384 -328 385 -331 0 -4 -173 -157 -385 -340 l-385 -334 0 -232 0 -233 1125 0 1125 0 0 233 -1 232 -384 334 c-212 183 -385 336 -385 340 1 3 174 152 385 331 l384 325 1 228 0 227 -1125 0 -1125 0 0 -227z m2159 -114 c25 -11 40 -23 35 -28 -92 -82 -785 -671 -790 -671 -4 0 -68 53 -143 118 l-136 119 -135 -118 c-74 -65 -138 -119 -143 -119 -5 0 -683 574 -791 671 -5 5 10 17 35 28 43 20 64 21 1034 21 970 0 991 -1 1034 -21z m-501 -1080 c290 -249 531 -456 536 -460 5 -5 -10 -17 -35 -28 -43 -20 -64 -21 -1034 -21 -968 0 -991 1 -1034 20 -24 11 -42 23 -39 25 31 32 1065 914 1071 914 4 1 245 -202 535 -450z"/>
 </g>

</svg>