<!DOCTYPE svg PUBLIC "-//W3C//DTD SVG 20010904//EN" "http://www.w3.org/TR/2001/REC-SVG-20010904/DTD/svg10.dtd">
<svg version="1.0" xmlns="http://www.w3.org/2000/svg" width="28px" height="42px" viewBox="0 0 280 420" preserveAspectRatio="xMidYMid meet">
<g id="layer101" fill="#ffffff" stroke="none">
 <path d="M81 335 c-64 -108 -81 -148 -81 -197 0 -80 57 -138 138 -138 114 0 174 103 127 216 -21 51 -115 204 -125 204 -4 0 -31 -38 -59 -85z m115 -161 c22 -33 10 -72 -29 -94 -24 -13 -30 -13 -54 0 -67 37 -48 120 27 120 31 0 43 -5 56 -26z"/>
 </g>

</svg>