<?xml version="1.0" encoding="iso-8859-1"?>
<!-- Generator: Adobe Illustrator 18.1.1, SVG Export Plug-In . SVG Version: 6.00 Build 0)  -->
<svg version="1.1" id="Capa_1" xmlns="http://www.w3.org/2000/svg" xmlns:xlink="http://www.w3.org/1999/xlink" x="0px" y="0px"
	 viewBox="0 0 454.745 454.745" style="enable-background:new 0 0 454.745 454.745;" xml:space="preserve">
<g>
	<g>
		<g>
			<path style="fill:#acacac;" d="M227.372,172.545c-30.238,0-54.819,24.581-54.819,54.827c0,30.23,24.581,54.827,54.819,54.827
				c30.222,0,54.819-24.597,54.819-54.827C282.192,197.134,257.595,172.545,227.372,172.545z"/>
		</g>
		<g>
			<path style="fill:#acacac;" d="M227.372,0C102.005,0,0,101.981,0,227.372C0,352.74,102.005,454.745,227.372,454.745
				S454.745,352.74,454.745,227.372C454.745,101.981,352.74,0,227.372,0z M122.709,377.003l64.525-56.168l0.813,84.935
				C149.013,405.77,122.709,377.003,122.709,377.003z M227.372,308.772c-44.894,0-81.424-36.522-81.424-81.4
				c0-44.894,36.522-81.4,81.424-81.4c44.878,0,81.4,36.497,81.4,81.4C308.772,272.25,272.25,308.772,227.372,308.772z"/>
		</g>
	</g>
</g>
<g>
</g>
<g>
</g>
<g>
</g>
<g>
</g>
<g>
</g>
<g>
</g>
<g>
</g>
<g>
</g>
<g>
</g>
<g>
</g>
<g>
</g>
<g>
</g>
<g>
</g>
<g>
</g>
<g>
</g>
</svg>
