<svg xmlns="http://www.w3.org/2000/svg" width="16" height="14" viewBox="0 0 16 14"><g><g><path fill="#000" d="M16.001 7.088v3.999a2.999 2.999 0 0 1-3 2.998h-10a3 3 0 0 1-3-2.998V6.088a3 3 0 0 1 3-2.998h.762A8.006 8.006 0 0 0 2.54 5.215a.99.99 0 0 0-.54.873v4.999a1 1 0 0 0 1 1h10a1 1 0 0 0 1-1V8.586zm-.4-2.2l-4 3a1.002 1.002 0 0 1-1.047.094 1 1 0 0 1-.553-.894v-1a5.997 5.997 0 0 0-5.65 3.999A5.964 5.964 0 0 1 4 8.088a6 6 0 0 1 6-5.997v-1a1 1 0 0 1 1.6-.8l4 3a.998.998 0 0 1 0 1.598z"/></g></g></svg>