<?xml version="1.0" encoding="iso-8859-1"?>
<!-- Generator: Adobe Illustrator 18.1.1, SVG Export Plug-In . SVG Version: 6.00 Build 0)  -->
<svg version="1.1" id="Capa_1" xmlns="http://www.w3.org/2000/svg" xmlns:xlink="http://www.w3.org/1999/xlink" x="0px" y="0px"
	 viewBox="0 0 58.052 58.052" style="enable-background:new 0 0 58.052 58.052;" xml:space="preserve">
<g>
	<path style="fill:#ffd700;" d="M0,35.856c0,5.534,4.502,10.035,10.034,10.035c5.533,0,10.034-4.501,10.034-10.035c0-3.846-2.176-7.188-5.357-8.872
		l2.615-5.667l3.656,8.093c0.959,3.301,5.586,6.05,7.356,7l-2.008,2.447h-1.333v1.956h3.751v-1.82l0.865-1.054
		c0.414,0.292,0.916,0.468,1.462,0.468c1.063,0,1.971-0.649,2.354-1.571h4.604c0.494,5.076,4.782,9.056,9.984,9.056
		c5.531,0,10.035-4.501,10.035-10.035c0-5.531-4.504-10.032-10.035-10.032c-3.849,0-7.19,2.179-8.875,5.364l-4.143-1.757
		l0.047-0.087l3.594-6.605l1.492,0.5c0.673,0.093,1.438-1.422,1.529-2.096c0.093-0.674-0.38-1.297-1.054-1.389l-5.488-0.752
		c-0.674-0.091-1.296,0.381-1.388,1.056c-0.092,0.674,0.381,1.296,1.055,1.389l1.971,0.66l-1.813,3.333l-15.198-9.608l-1.229-1.229
		c-0.06-0.142-0.119-0.298-0.186-0.47c0.966-0.101,3.271,0.184,5.466,0.698l0.445-1.906c-4.256-1-6.837-1.021-7.675-0.067
		c-0.359,0.412-0.447,0.968-0.238,1.522c0.521,1.375,0.822,2.03,0.975,2.325l-4.409,9.542c-0.907-0.272-1.867-0.421-2.861-0.421
		C4.502,25.823,0,30.324,0,35.856z M38.404,32.999c-0.18,0.605-0.307,1.232-0.369,1.88h-4.604c-0.162-0.394-0.431-0.729-0.753-0.992
		l1.415-2.716L38.404,32.999z M40.224,33.772l2.605,1.106h-2.822C40.053,34.501,40.129,34.132,40.224,33.772z M40.007,36.836h5.597
		c0.383,0.922,1.29,1.571,2.353,1.571c1.407,0,2.548-1.142,2.548-2.55c0-1.406-1.141-2.549-2.548-2.549
		c-0.74,0-1.401,0.322-1.87,0.827l-5.136-2.18c1.379-2.487,4.03-4.175,7.069-4.175c4.454,0,8.076,3.623,8.076,8.076
		c0,4.455-3.622,8.078-8.076,8.078C43.898,43.934,40.493,40.829,40.007,36.836z M22.795,28.671l-1.282-2.841l10.774,4.574
		l-1.533,2.937c-0.769,0.099-1.427,0.532-1.824,1.158c-2.049-1.15-5.48-3.471-6.082-5.684L22.795,28.671z M18.418,18.977
		l0.618-1.282l14.952,9.451l-0.669,1.282l-0.127,0.232l-12.87-5.463L18.418,18.977z M1.956,35.856c0-4.453,3.623-8.076,8.078-8.076
		c0.701,0,1.379,0.1,2.028,0.268l-4.418,9.56l1.775,0.822l4.47-9.67c2.513,1.37,4.222,4.037,4.222,7.097
		c0,4.455-3.623,8.078-8.077,8.078C5.579,43.934,1.956,40.311,1.956,35.856z"/>
	<g>
	</g>
	<g>
	</g>
	<g>
	</g>
	<g>
	</g>
	<g>
	</g>
	<g>
	</g>
	<g>
	</g>
	<g>
	</g>
	<g>
	</g>
	<g>
	</g>
	<g>
	</g>
	<g>
	</g>
	<g>
	</g>
	<g>
	</g>
	<g>
	</g>
</g>
<g>
</g>
<g>
</g>
<g>
</g>
<g>
</g>
<g>
</g>
<g>
</g>
<g>
</g>
<g>
</g>
<g>
</g>
<g>
</g>
<g>
</g>
<g>
</g>
<g>
</g>
<g>
</g>
<g>
</g>
</svg>