<?xml version="1.0" encoding="iso-8859-1"?>
<!-- Generator: Adobe Illustrator 19.0.0, SVG Export Plug-In . SVG Version: 6.00 Build 0)  -->
<svg version="1.1" id="Layer_1" xmlns="http://www.w3.org/2000/svg" xmlns:xlink="http://www.w3.org/1999/xlink" x="0px" y="0px"
	 viewBox="0 0 512 512" style="enable-background:new 0 0 512 512;" xml:space="preserve">
<g>
	<g>
		<path d="M326.335,0c-15.923,0-28.877,12.954-28.877,28.876v175.102c0,11.339-4.674,22.436-12.823,30.446
			c-7.988,7.851-18.408,12.09-29.354,11.885c-22.464-0.385-40.741-18.982-40.741-41.458V28.876C214.541,12.953,201.587,0,185.665,0
			c-15.923,0-28.877,12.954-28.877,28.876v175.975c0,22.528,7.791,44.598,21.939,62.145c12.507,15.513,29.508,26.975,48.402,32.752
			v126.789c-11.387,8.71-18.751,22.428-18.751,37.839c0,26.26,21.365,47.625,47.625,47.625c26.26,0,47.625-21.365,47.625-47.625
			c0-15.408-7.361-29.123-18.745-37.834V299.748c18.892-5.776,35.891-17.238,48.396-32.752
			c14.144-17.546,21.933-39.616,21.933-62.144V28.876C355.212,12.954,342.258,0,326.335,0z M286.839,464.375
			c0,17.003-13.832,30.837-30.837,30.837c-17.003,0-30.837-13.834-30.837-30.837c0-17.003,13.832-30.837,30.837-30.837
			S286.839,447.372,286.839,464.375z M338.424,204.852c0,18.98-6.299,36.825-18.215,51.608
			c-11.578,14.364-27.777,24.548-45.613,28.677c-3.805,0.881-6.502,4.271-6.502,8.178v124.996c-3.864-1.015-7.915-1.56-12.092-1.56
			c-4.175,0-8.224,0.544-12.085,1.558V293.314c0-3.907-2.695-7.297-6.502-8.178c-17.838-4.129-34.039-14.313-45.619-28.677
			c-11.92-14.784-18.22-32.63-18.22-51.607V28.876c0-6.665,5.424-12.088,12.089-12.088c6.665,0,12.088,5.423,12.088,12.088v175.975
			c0,31.576,25.678,57.704,57.243,58.244c15.486,0.263,30.185-5.664,41.41-16.698c11.339-11.146,17.842-26.607,17.842-42.418V28.876
			c0-6.665,5.423-12.088,12.089-12.088c6.665,0,12.089,5.423,12.089,12.088V204.852z"/>
	</g>
</g>
<g>
</g>
<g>
</g>
<g>
</g>
<g>
</g>
<g>
</g>
<g>
</g>
<g>
</g>
<g>
</g>
<g>
</g>
<g>
</g>
<g>
</g>
<g>
</g>
<g>
</g>
<g>
</g>
<g>
</g>
</svg>
