<?xml version="1.0" encoding="iso-8859-1"?>
<!-- Generator: Adobe Illustrator 19.0.0, SVG Export Plug-In . SVG Version: 6.00 Build 0)  -->
<svg version="1.1" id="Capa_1" xmlns="http://www.w3.org/2000/svg" xmlns:xlink="http://www.w3.org/1999/xlink" x="0px" y="0px"
	 viewBox="0 0 489.994 489.994" style="enable-background:new 0 0 489.994 489.994;" xml:space="preserve">
<path d="M407.078,269.445c-6.469,0-12.759,0.768-18.805,2.176l-43.228-116.586c0.602-32.397-7.828-57.819-25.075-75.59
	c-23.692-24.414-55.172-24.695-56.505-24.695c-5.763,0-10.426,4.668-10.426,10.425c0,5.758,4.663,10.425,10.426,10.425
	c0.233,0,23.925,0.209,41.549,18.367c8.049,8.294,13.569,19.116,16.563,32.302c-24.479-17.608-54.327-14.507-70.064-8.666
	c-5.386,2.011-8.135,8.013-6.129,13.409c2.015,5.4,8.033,8.149,13.419,6.128c1.772-0.663,43.666-15.691,66.312,24.096l13.611,36.712
	l-21.892,31.831h-120.75l-13.919-42.053h30.71c5.762,0,10.426-4.668,10.426-10.425c0-5.757-4.663-10.426-10.426-10.426h-90.266
	c-5.762,0-10.425,4.668-10.425,10.426c0,5.757,4.663,10.425,10.425,10.425H160.2l13.92,42.053h-65.419
	c-92.2,0-107.768,57.396-108.389,59.839c-1.394,5.544,2.029,10.804,7.464,12.585c5.59,1.831,11.144-2.033,12.726-7.372
	c0.507-1.71,11.847-40.21,77.773-43.913v19.206c-40.816,5.144-72.49,40.034-72.49,82.201c0,45.723,37.192,82.92,82.915,82.92
	c45.703,0,82.884-37.197,82.884-82.92c0-42.165-31.663-77.054-72.459-82.2V250.63h61.896l41.096,124.154
	c1.243,3.756,4.548,6.264,8.43,7.046c3.882,0.782,8.094-1.563,10.06-4.414l106.984-155.552l21.138,57.013
	c-26.466,13.86-44.576,41.573-44.576,73.448c0,45.723,37.202,82.92,82.925,82.92c45.724,0,82.916-37.197,82.916-82.92
	C489.994,306.627,452.803,269.445,407.078,269.445z M170.734,352.324c0,34.224-27.825,62.069-62.033,62.069
	c-34.219,0-62.064-27.846-62.064-62.069c0-30.652,22.368-56.164,51.639-61.136v56.218c0,5.758,4.663,10.426,10.426,10.426
	c5.763,0,10.425-4.668,10.425-10.426v-56.217C148.385,296.163,170.734,321.674,170.734,352.324z M235.314,348.308l-32.33-97.677
	h99.508L235.314,348.308z M407.078,414.394c-34.229,0-62.074-27.846-62.074-62.069c0-22.915,12.508-42.952,31.05-53.691
	l21.25,57.315c3.534,7.99,10.412,7.226,13.399,6.15c5.415-1.95,8.155-7.997,6.149-13.399l-21.254-57.323
	c3.723-0.699,7.557-1.081,11.48-1.081c34.22,0,62.065,27.824,62.065,62.028C469.143,386.548,441.298,414.394,407.078,414.394z"/>
<g>
</g>
<g>
</g>
<g>
</g>
<g>
</g>
<g>
</g>
<g>
</g>
<g>
</g>
<g>
</g>
<g>
</g>
<g>
</g>
<g>
</g>
<g>
</g>
<g>
</g>
<g>
</g>
<g>
</g>
</svg>
