<?xml version='1.0' encoding='iso-8859-1'?>
<svg version="1.1" xmlns="http://www.w3.org/2000/svg" viewBox="0 0 470 470" xmlns:xlink="http://www.w3.org/1999/xlink" enable-background="new 0 0 470 470">
  <g>
    <path d="m395.969,28.512h-20.121c-8.941,0-16.575-5.624-19.604-13.512h39.725c4.143,0 7.5-3.357 7.5-7.5s-3.357-7.5-7.5-7.5h-85.991c-4.143,0-7.5,3.357-7.5,7.5 0,11.586-9.426,21.012-21.012,21.012h-38.966v-2.5c0-4.143-3.357-7.5-7.5-7.5-4.142,0-7.5,3.357-7.5,7.5v2.5h-38.966c-11.586,0-21.012-9.426-21.012-21.012 0-4.143-3.358-7.5-7.5-7.5h-85.991c-4.142,0-7.5,3.357-7.5,7.5s3.358,7.5 7.5,7.5h39.726c-3.029,7.888-10.663,13.512-19.604,13.512h-20.122c-4.142,0-7.5,3.357-7.5,7.5s3.358,7.5 7.5,7.5h20.122c17.286,0 31.76-12.243 35.221-28.512h23.935c3.459,16.271 17.94,28.512 35.226,28.512h38.965v35h-37.5c-12.407,0-22.5,10.094-22.5,22.5s10.093,22.5 22.5,22.5c4.142,0 7.5-3.357 7.5-7.5s-3.358-7.5-7.5-7.5c-4.136,0-7.5-3.364-7.5-7.5s3.364-7.5 7.5-7.5h22.5v45.109c-17.721,8.442-30,26.524-30,47.424v123.228h-32.5c-4.142,0-7.5,3.357-7.5,7.5s3.358,7.5 7.5,7.5h40c4.142,0 7.5-3.357 7.5-7.5v-130.728c0-16.19 10.313-30.014 24.714-35.253 0.022-0.007 0.043-0.015 0.064-0.022 3.974-1.438 8.257-2.225 12.721-2.225 4.463,0 8.745,0.787 12.719,2.224 0.023,0.007 0.045,0.016 0.068,0.023 14.401,5.239 24.714,19.063 24.714,35.253v130.728c0,4.143 3.357,7.5 7.5,7.5h40c4.143,0 7.5-3.357 7.5-7.5s-3.357-7.5-7.5-7.5h-32.5v-123.228c0-20.9-12.279-38.982-30-47.424v-45.109h22.5c4.136,0 7.5,3.364 7.5,7.5s-3.364,7.5-7.5,7.5c-4.143,0-7.5,3.357-7.5,7.5s3.357,7.5 7.5,7.5c12.406,0 22.5-10.094 22.5-22.5s-10.094-22.5-22.5-22.5h-37.5v-35h38.966c17.286,0 31.767-12.241 35.227-28.512h23.935c3.461,16.269 17.935,28.512 35.221,28.512h20.121c4.143,0 7.5-3.357 7.5-7.5s-3.358-7.5-7.501-7.5zm-153.469,105.577c-2.451-0.352-4.953-0.544-7.5-0.544s-5.049,0.192-7.5,0.544v-40.577h15v40.577z"/>
    <path d="m235,163.545c-12.407,0-22.5,10.094-22.5,22.5v261.455c0,12.406 10.093,22.5 22.5,22.5 12.406,0 22.5-10.094 22.5-22.5v-261.455c0-12.406-10.094-22.5-22.5-22.5zm7.5,283.955c0,4.136-3.364,7.5-7.5,7.5s-7.5-3.364-7.5-7.5v-261.455c0-4.136 3.364-7.5 7.5-7.5s7.5,3.364 7.5,7.5v261.455z"/>
  </g>
</svg>
