<?xml version="1.0" encoding="iso-8859-1"?>
<!-- Generator: Adobe Illustrator 19.0.0, SVG Export Plug-In . SVG Version: 6.00 Build 0)  -->
<svg version="1.1" id="Layer_1" xmlns="http://www.w3.org/2000/svg" xmlns:xlink="http://www.w3.org/1999/xlink" x="0px" y="0px"
	 viewBox="0 0 512 512" style="enable-background:new 0 0 512 512;" xml:space="preserve">
<g>
	<g>
		<g>
			<path style="fill:#3b3b3b;" d="M234.667,256c0,11.776,9.557,21.333,21.333,21.333s21.333-9.557,21.333-21.333s-9.557-21.333-21.333-21.333
				S234.667,244.224,234.667,256z"/>
			<path style="fill:#3b3b3b;" d="M256,0C114.618,0,0,114.618,0,256s114.618,256,256,256s256-114.618,256-256S397.382,0,256,0z M256,469.333
				c-117.818,0-213.333-95.515-213.333-213.333S138.182,42.667,256,42.667S469.333,138.182,469.333,256S373.818,469.333,256,469.333
				z"/>
			<path style="fill:#3b3b3b;" d="M352.463,217.572c26.216,0,50.764-10.734,68.634-29.339c6.437-6.702,7.796-16.8,3.358-24.965
				c-27.657-50.891-76.804-86.97-133.911-97.452c-9.237-1.696-18.497,2.849-22.806,11.193
				c-7.056,13.662-10.805,28.771-10.805,44.392C256.932,174.469,299.662,217.572,352.463,217.572z M300.397,112.134
				c31.139,9.786,58.244,29.671,77.14,56.361c-7.58,4.159-16.142,6.41-25.073,6.41c-29.153,0-52.864-23.918-52.864-53.504
				C299.599,118.264,299.868,115.168,300.397,112.134z"/>
			<path style="fill:#3b3b3b;" d="M446.771,234.433c-0.946-8.514-6.893-15.637-15.103-18.087c-8.873-2.648-18.002-4.027-27.263-4.027
				c-52.801,0-95.531,43.103-95.531,96.171c0,13.418,2.765,26.317,7.812,38.079c-16.536-13.759-37.707-21.983-60.688-21.983
				c-46.688,0-86.2,33.943-94.051,79.745c-1.546,9.018,2.831,18.018,10.879,22.37c26.482,14.32,56.115,22.178,86.88,22.767
				c28.355-0.663,54.863-7.088,79.052-18.754c8.234-3.971,13.022-12.746,11.906-21.819c-1.139-9.259-3.579-18.081-7.103-26.299
				c7.419,6.172,15.819,11.276,25.011,15.025c7.978,3.254,17.129,1.389,23.198-4.726c35.756-36.027,56.218-84.8,56.218-136.777
				C447.989,248.908,447.577,241.688,446.771,234.433z M259.601,406.812c-17.26-0.345-34.492-3.857-50.685-10.274
				c8.779-17.523,26.728-29.284,47.081-29.284c21.293,0,39.856,12.862,48.138,31.639C289.96,403.75,274.991,406.441,259.601,406.812
				z M372.17,350.872c-12.722-9.908-20.629-25.389-20.629-42.381c0-29.586,23.711-53.504,52.864-53.504
				c0.305,0,0.609,0.003,0.913,0.008c0.003,0.374,0.004,0.748,0.004,1.122C405.323,291.224,393.412,324.375,372.17,350.872z"/>
			<path style="fill:#3b3b3b;" d="M195.703,301.011c0-36.387-20.09-68.086-49.74-84.421c4.458,0.642,8.991,0.977,13.578,0.977
				c52.801,0,95.531-43.103,95.531-96.171c0-15.634-3.766-30.782-10.851-44.417c-4.32-8.314-13.559-12.837-22.775-11.148
				c-57.069,10.456-106.223,46.54-133.912,97.421c-4.447,8.172-3.086,18.283,3.364,24.987c6.772,7.039,14.498,12.949,22.905,17.578
				c-4.452-0.64-9.001-0.978-13.63-0.978c-5.24,0-10.428,0.495-15.959,1.427c-8.979,1.512-16.008,8.556-17.501,17.538
				c-1.794,10.789-2.721,21.559-2.721,32.299c0,47.879,17.375,93.093,48.277,128.241c6.025,6.853,15.742,9.115,24.175,5.628
				C172.017,375.26,195.703,340.34,195.703,301.011z M211.607,112.141c0.529,3.03,0.799,6.123,0.799,9.256
				c0,29.586-23.711,53.504-52.864,53.504c-8.931,0-17.494-2.252-25.081-6.412C153.376,141.798,180.487,121.913,211.607,112.141z
				 M133.583,342.464c-17.365-25.023-26.925-54.919-26.925-86.359c0-2.714,0.077-5.437,0.229-8.169
				c25.994,3.338,46.15,25.798,46.15,53.076C153.037,317.48,145.618,332.53,133.583,342.464z"/>
		</g>
	</g>
</g>
<g>
</g>
<g>
</g>
<g>
</g>
<g>
</g>
<g>
</g>
<g>
</g>
<g>
</g>
<g>
</g>
<g>
</g>
<g>
</g>
<g>
</g>
<g>
</g>
<g>
</g>
<g>
</g>
<g>
</g>
</svg>
